# xmcd
#
# Track frame offsets:
#	182
#	13285
#	24595
#	37562
#	48412
#	61347
#	74377
#	86760
#	100130
#	111510
#	124792
#	135910
#	147425
#	161582
#
# Disc length: 2394 seconds
#
# Revision: 2
# Processed by: cddbd v1.5.1PL2 Copyright (c) Steve Scherf et al.
# Submitted via: CDmax 2.0
#
DISCID=bd09580e
DTITLE=Various Artist - Where The Blues Was Born CD1
DYEAR=1993
DGENRE=Blues
TTITLE0=Muddy Waters (with Little Walter On Harmonica) - Mannish Boy
TTITLE1=John Lee Hooker - Boom Boom
TTITLE2=Little Walter - Everybody Needs Somebody
TTITLE3=Howlin' Wolf - Wang Dang Doodle
TTITLE4=Big Joe Williams - Don't Want No Big Fat Woman
TTITLE5=Little Walter - Roller Coaster
TTITLE6=John Lee Hooker - Hobo Blues
TTITLE7=Muddy Waters - She Moves Me
TTITLE8=Big Joe Williams - Bye, Bye Baby Blues
TTITLE9=Sonny Boy Williamson - Sad To Be Alone
TTITLE10=Howlin' Wolf - You'll Be Mine
TTITLE11=Little Walter - As Long As I Have You
TTITLE12=Sonny Boy Williamson - Help Me
TTITLE13=John Lee Hooker - House Rent Boogie
EXTD=
EXTT0=
EXTT1=
EXTT2=
EXTT3=
EXTT4=
EXTT5=
EXTT6=
EXTT7=
EXTT8=
EXTT9=
EXTT10=
EXTT11=
EXTT12=
EXTT13=
PLAYORDER=
